.
..............................Site Info...........................

 -   http://www.scenetime.com  *_*    

Scenetime .Always on time . friendly online private torrent community ..

     We care to share . Join us on  http://www.scenetime.com 

    Be the first to get new release at  http://www.scenetime.com

        Seed back for speed


...................................NFO:.................................................Prometheus 2012 R2 FULL CAM AUDIO XviD - ILLUMINATI

Video
ID                                       : 0
Format                                   : MPEG-4 Visual
Format profile                           : Advanced Simple@L5
Format settings, BVOP                    : 2
Format settings, QPel                    : No
Format settings, GMC                     : No warppoints
Format settings, Matrix                  : Default (H.263)
Muxing mode                              : Packed bitstream
Codec ID                                 : XVID
Codec ID/Hint                            : XviD
Duration                                 : 1h 58mn
Bit rate                                 : 1 757 Kbps
Width                                    : 720 pixels
Height                                   : 304 pixels
Display aspect ratio                     : 2.35:1
Frame rate                               : 25.000 fps
Color space                              : YUV
Chroma subsampling                       : 4:2:0
Bit depth                                : 8 bits
Scan type                                : Progressive
Compression mode                         : Lossy
Bits/(Pixel*Frame)                       : 0.321
Stream size                              : 1.46 GiB (100%)
Writing library                          : XviD 64

Audio
Format                                   : MPEG Audio
Format version                           : Version 1
Format profile                           : Layer 3
Mode                                     : Joint stereo
Mode extension                           : MS Stereo
Duration                                 : 1h 58mn
Bit rate mode                            : Constant
Bit rate                                 : 128 Kbps
Channel(s)                               : 2 channels
Sampling rate                            : 44.1 KHz
Compression mode                         : Lossy
Stream size                              : 109 MiB (100%)
Writing library                          : LAME3.99r


Sources: French dvdrip / TODE and ADTRG

Notes:
Frist opted for ADTRG LiNE but was the worst "LiNE" we ever heard
infact was shit for cam audio, perhaps learn the difference before tagging things ADTRG
Used TODE audio for most the film, and since TODE missed the end used 2 minutes 
ADTRG cam audio to make a complete film.
Anyhow video is perfect and audio is damn good for cam so enjoy or fuck off till retail comes

[img]http://i.imgur.com/pQl8Z.png[/img]
[img]http://i.imgur.com/DkyUu.png[/img]
[img]http://i.imgur.com/7Eqef.png[/img]
[img]http://i.imgur.com/rPCGR.png[/img]